# xmcd
#
# Track frame offsets: 
#        150
#        15928
#        30286
#        42335
#        55480
#        70052
#        83457
#        95132
#        108009
#        122991
#        135841
#        147884
#        159647
#        171546
#        185309
#        198799
#        210910
#        225021
#        238308
#        250952
#
# Disc length: 3719 seconds
#
# Revision: 1
# Processed by: cddbd v1.5.2PL0 Copyright (c) Steve Scherf et al.
# Submitted via: ExactAudioCopy v0.99pb4
#
DISCID=fb0e8514
DTITLE=Various Artist - Rude Dudes [Disk 1 of 2]
DYEAR=2003
DGENRE=Blues
TTITLE0=Whistling Rufus - (Who's Gonna Do Your) Sweet Jelly Rollin'
TTITLE1=Butterbeans and Susie - Elevator Papa, Switchboard Mama
TTITLE2=George Hannah - The Boy In the Boat
TTITLE3=Ethel Waters - My Handy Man
TTITLE4=Lizzie Miles - Electrician Blues
TTITLE5=Hunter and Jenkins - Lollypop
TTITLE6=Napoleon Fletcher - She Showed It All
TTITLE7=Barrel House Annie - If It Don't Fit (Don't Force It)
TTITLE8=Lil Johnson - Take It Easy Greasy
TTITLE9=Josh White (Pinewood Tom) - Sissy Man
TTITLE10=Bo Carter - Mashing That Thing
TTITLE11=Tampa Red - Let Me Play With Your Poodle
TTITLE12=Washboard Sam - I'm Gonna Keep My Hair Parted
TTITLE13=Jesse James - Sweet Petunia
TTITLE14=Speckled Red - The Dirty Dozen No. 2
TTITLE15=Roosevelt Sykes - We Can Sell That Thing
TTITLE16=Bo Carter - Banana In Your Fruit Basket
TTITLE17=Lil Johnson - My Stove Is In Good Condition
TTITLE18=Lillie Mae Kirkman - He's Just My Size
TTITLE19=Lonnie Johnson and Victoria Spivery - Furniture Man Blues (Pt. 
TTITLE19=1 and 2)
EXTD=
EXTT0=
EXTT1=
EXTT2=
EXTT3=
EXTT4=
EXTT5=
EXTT6=
EXTT7=
EXTT8=
EXTT9=
EXTT10=
EXTT11=
EXTT12=
EXTT13=
EXTT14=
EXTT15=
EXTT16=
EXTT17=
EXTT18=
EXTT19=
PLAYORDER=
